<svg width="240" height="240" viewBox="0 0 240 240" fill="none" xmlns="http://www.w3.org/2000/svg">
<g clip-path="url(#clip0_114_953)">
<rect width="240" height="240" fill="#9EEDB1"/>
<path fill-rule="evenodd" clip-rule="evenodd" d="M114.692 69.2307C88.8195 69.2307 67.8457 90.2044 67.8457 116.077C67.8457 128.137 72.4032 139.133 79.89 147.437L73.6301 173.709C73.2314 175.383 75.1364 176.644 76.5212 175.623L97.9392 159.839C103.141 161.831 108.789 162.923 114.692 162.923H130.384C156.257 162.923 177.23 141.949 177.23 116.077C177.23 90.2044 156.257 69.2307 130.384 69.2307H114.692ZM149 93.5C152.589 93.5 155.5 96.4101 155.5 100V112C155.5 115.59 152.589 118.5 149 118.5C145.41 118.5 142.5 115.59 142.5 112V100C142.5 96.4101 145.41 93.5 149 93.5ZM129.5 100C129.5 96.4101 126.589 93.5 123 93.5C119.41 93.5 116.5 96.4101 116.5 100V112C116.5 115.59 119.41 118.5 123 118.5C126.589 118.5 129.5 115.59 129.5 112V100Z" fill="black"/>
<g filter="url(#filter0_iii_114_953)">
<rect x="140.156" y="136.156" width="200.325" height="200.325" rx="100.163" fill="url(#paint0_linear_114_953)"/>
</g>
<g filter="url(#filter1_iii_114_953)">
<rect x="-86.4893" y="-108.489" width="200.325" height="200.325" rx="100.163" fill="url(#paint1_linear_114_953)"/>
</g>
</g>
<defs>
<filter id="filter0_iii_114_953" x="140.156" y="136.156" width="200.325" height="210.325" filterUnits="userSpaceOnUse" color-interpolation-filters="sRGB">
<feFlood flood-opacity="0" result="BackgroundImageFix"/>
<feBlend mode="normal" in="SourceGraphic" in2="BackgroundImageFix" result="shape"/>
<feColorMatrix in="SourceAlpha" type="matrix" values="0 0 0 0 0 0 0 0 0 0 0 0 0 0 0 0 0 0 127 0" result="hardAlpha"/>
<feOffset dy="10"/>
<feGaussianBlur stdDeviation="5"/>
<feComposite in2="hardAlpha" operator="arithmetic" k2="-1" k3="1"/>
<feColorMatrix type="matrix" values="0 0 0 0 0.458333 0 0 0 0 0.458333 0 0 0 0 0.458333 0 0 0 0.16 0"/>
<feBlend mode="overlay" in2="shape" result="effect1_innerShadow_114_953"/>
<feColorMatrix in="SourceAlpha" type="matrix" values="0 0 0 0 0 0 0 0 0 0 0 0 0 0 0 0 0 0 127 0" result="hardAlpha"/>
<feOffset dy="8"/>
<feGaussianBlur stdDeviation="1.5"/>
<feComposite in2="hardAlpha" operator="arithmetic" k2="-1" k3="1"/>
<feColorMatrix type="matrix" values="0 0 0 0 0.391667 0 0 0 0 0.391667 0 0 0 0 0.391667 0 0 0 0.23 0"/>
<feBlend mode="multiply" in2="effect1_innerShadow_114_953" result="effect2_innerShadow_114_953"/>
<feColorMatrix in="SourceAlpha" type="matrix" values="0 0 0 0 0 0 0 0 0 0 0 0 0 0 0 0 0 0 127 0" result="hardAlpha"/>
<feOffset dx="-2"/>
<feComposite in2="hardAlpha" operator="arithmetic" k2="-1" k3="1"/>
<feColorMatrix type="matrix" values="0 0 0 0 1 0 0 0 0 1 0 0 0 0 1 0 0 0 0.19 0"/>
<feBlend mode="screen" in2="effect2_innerShadow_114_953" result="effect3_innerShadow_114_953"/>
</filter>
<filter id="filter1_iii_114_953" x="-86.4893" y="-118.489" width="200.325" height="210.325" filterUnits="userSpaceOnUse" color-interpolation-filters="sRGB">
<feFlood flood-opacity="0" result="BackgroundImageFix"/>
<feBlend mode="normal" in="SourceGraphic" in2="BackgroundImageFix" result="shape"/>
<feColorMatrix in="SourceAlpha" type="matrix" values="0 0 0 0 0 0 0 0 0 0 0 0 0 0 0 0 0 0 127 0" result="hardAlpha"/>
<feOffset dy="-10"/>
<feGaussianBlur stdDeviation="5"/>
<feComposite in2="hardAlpha" operator="arithmetic" k2="-1" k3="1"/>
<feColorMatrix type="matrix" values="0 0 0 0 0.458333 0 0 0 0 0.458333 0 0 0 0 0.458333 0 0 0 0.16 0"/>
<feBlend mode="overlay" in2="shape" result="effect1_innerShadow_114_953"/>
<feColorMatrix in="SourceAlpha" type="matrix" values="0 0 0 0 0 0 0 0 0 0 0 0 0 0 0 0 0 0 127 0" result="hardAlpha"/>
<feOffset dy="-8"/>
<feGaussianBlur stdDeviation="1.5"/>
<feComposite in2="hardAlpha" operator="arithmetic" k2="-1" k3="1"/>
<feColorMatrix type="matrix" values="0 0 0 0 0.391667 0 0 0 0 0.391667 0 0 0 0 0.391667 0 0 0 0.23 0"/>
<feBlend mode="multiply" in2="effect1_innerShadow_114_953" result="effect2_innerShadow_114_953"/>
<feColorMatrix in="SourceAlpha" type="matrix" values="0 0 0 0 0 0 0 0 0 0 0 0 0 0 0 0 0 0 127 0" result="hardAlpha"/>
<feOffset dx="2"/>
<feComposite in2="hardAlpha" operator="arithmetic" k2="-1" k3="1"/>
<feColorMatrix type="matrix" values="0 0 0 0 1 0 0 0 0 1 0 0 0 0 1 0 0 0 0.19 0"/>
<feBlend mode="screen" in2="effect2_innerShadow_114_953" result="effect3_innerShadow_114_953"/>
</filter>
<linearGradient id="paint0_linear_114_953" x1="169" y1="163.5" x2="261.5" y2="273.5" gradientUnits="userSpaceOnUse">
<stop stop-color="#45CAD2"/>
<stop offset="1" stop-color="#51EFF9" stop-opacity="0.05"/>
</linearGradient>
<linearGradient id="paint1_linear_114_953" x1="67.4996" y1="76" x2="-0.000365811" y2="-44" gradientUnits="userSpaceOnUse">
<stop stop-color="#EFE47D"/>
<stop offset="1" stop-color="#FFF8BD" stop-opacity="0.05"/>
</linearGradient>
<clipPath id="clip0_114_953">
<rect width="240" height="240" fill="white"/>
</clipPath>
</defs>
</svg>
